<svg xmlns="http://www.w3.org/2000/svg" xmlns:xlink="http://www.w3.org/1999/xlink" width="500" zoomAndPan="magnify" viewBox="0 0 375 374.999991" height="500" preserveAspectRatio="xMidYMid meet" version="1.2"><defs/><g id="6a95ffcaa0"><rect x="0" width="375" y="0" height="374.999991" style="fill:#ffffff;fill-opacity:1;stroke:none;"/><rect x="0" width="375" y="0" height="374.999991" style="fill:#ffffff;fill-opacity:1;stroke:none;"/><g style="fill:#2e282a;fill-opacity:1;"><g transform="translate(37.500002, 152.693076)"><path style="stroke:none" d="M 69.359375 -92.65625 L 91.203125 -92.65625 L 56.265625 0 L 37.328125 0 L 1.0625 -92.65625 L 23.171875 -92.65625 L 46.59375 -27.140625 Z M 69.359375 -92.65625 "/></g></g><g style="fill:#2e282a;fill-opacity:1;"><g transform="translate(135.987449, 152.693076)"><path style="stroke:none" d="M 7.9375 0 L 7.9375 -20.65625 L 28.453125 -20.65625 L 28.453125 0 Z M 7.9375 0 "/></g></g><g style="fill:#2e282a;fill-opacity:1;"><g transform="translate(177.820305, 152.693076)"><path style="stroke:none" d=""/></g></g><g style="fill:#2e282a;fill-opacity:1;"><g transform="translate(37.500002, 295.193066)"><path style="stroke:none" d="M 45.671875 -92.65625 C 52.460938 -92.65625 58.726562 -91.507812 64.46875 -89.21875 C 70.207031 -86.925781 75.171875 -83.703125 79.359375 -79.546875 C 83.546875 -75.398438 86.804688 -70.523438 89.140625 -64.921875 C 91.484375 -59.328125 92.65625 -53.175781 92.65625 -46.46875 C 92.65625 -39.757812 91.484375 -33.578125 89.140625 -27.921875 C 86.804688 -22.273438 83.546875 -17.359375 79.359375 -13.171875 C 75.171875 -8.984375 70.207031 -5.738281 64.46875 -3.4375 C 58.726562 -1.144531 52.460938 0 45.671875 0 L 10.59375 0 L 10.59375 -92.65625 Z M 45.140625 -18.671875 C 50.429688 -18.671875 55.109375 -19.859375 59.171875 -22.234375 C 63.234375 -24.617188 66.410156 -27.90625 68.703125 -32.09375 C 70.992188 -36.289062 72.140625 -41.082031 72.140625 -46.46875 C 72.140625 -51.84375 70.992188 -56.601562 68.703125 -60.75 C 66.410156 -64.90625 63.234375 -68.148438 59.171875 -70.484375 C 55.109375 -72.828125 50.429688 -74 45.140625 -74 L 30.71875 -74 L 30.71875 -18.671875 Z M 45.140625 -18.671875 "/></g></g><g style="fill:#2e282a;fill-opacity:1;"><g transform="translate(141.150073, 295.193066)"><path style="stroke:none" d="M 30.71875 -18.671875 L 67.640625 -18.671875 L 67.640625 0 L 10.59375 0 L 10.59375 -92.65625 L 66.1875 -92.65625 L 66.1875 -74.125 L 30.71875 -74.125 L 30.71875 -55.859375 L 62.75 -55.859375 L 62.75 -37.734375 L 30.71875 -37.734375 Z M 30.71875 -18.671875 "/></g></g><g style="fill:#2e282a;fill-opacity:1;"><g transform="translate(220.707883, 295.193066)"><path style="stroke:none" d="M 69.359375 -92.65625 L 91.203125 -92.65625 L 56.265625 0 L 37.328125 0 L 1.0625 -92.65625 L 23.171875 -92.65625 L 46.59375 -27.140625 Z M 69.359375 -92.65625 "/></g></g></g></svg>