<svg xmlns="http://www.w3.org/2000/svg" xmlns:xlink="http://www.w3.org/1999/xlink" width="500" zoomAndPan="magnify" viewBox="0 0 375 374.999991" height="500" preserveAspectRatio="xMidYMid meet" version="1.2"><defs/><g id="0ce64aa80a"><rect x="0" width="375" y="0" height="374.999991" style="fill:#ffffff;fill-opacity:1;stroke:none;"/><rect x="0" width="375" y="0" height="374.999991" style="fill:#ffffff;fill-opacity:1;stroke:none;"/><g style="fill:#2e282a;fill-opacity:1;"><g transform="translate(82.388927, 113.615254)"><path style="stroke:none" d="M 47.234375 -63.09375 L 62.109375 -63.09375 L 38.3125 0 L 25.421875 0 L 0.71875 -63.09375 L 15.78125 -63.09375 L 31.734375 -18.484375 Z M 47.234375 -63.09375 "/></g></g><g style="fill:#2e282a;fill-opacity:1;"><g transform="translate(149.443715, 113.615254)"><path style="stroke:none" d="M 7.21875 0 L 7.21875 -63.09375 L 20.90625 -63.09375 L 20.90625 0 Z M 7.21875 0 "/></g></g><g style="fill:#2e282a;fill-opacity:1;"><g transform="translate(181.349155, 113.615254)"><path style="stroke:none" d="M 73.1875 6.765625 L 59.3125 6.765625 L 51.921875 -1.71875 C 49.691406 -0.75 47.34375 0.00390625 44.875 0.546875 C 42.414062 1.085938 39.835938 1.359375 37.140625 1.359375 C 32.328125 1.359375 27.878906 0.53125 23.796875 -1.125 C 19.710938 -2.78125 16.148438 -5.09375 13.109375 -8.0625 C 10.078125 -11.039062 7.71875 -14.523438 6.03125 -18.515625 C 4.351562 -22.515625 3.515625 -26.859375 3.515625 -31.546875 C 3.515625 -36.234375 4.351562 -40.570312 6.03125 -44.5625 C 7.71875 -48.5625 10.078125 -52.050781 13.109375 -55.03125 C 16.148438 -58.007812 19.710938 -60.320312 23.796875 -61.96875 C 27.878906 -63.625 32.328125 -64.453125 37.140625 -64.453125 C 41.941406 -64.453125 46.382812 -63.625 50.46875 -61.96875 C 54.5625 -60.320312 58.109375 -58.007812 61.109375 -55.03125 C 64.117188 -52.050781 66.460938 -48.5625 68.140625 -44.5625 C 69.828125 -40.570312 70.671875 -36.234375 70.671875 -31.546875 C 70.671875 -26.742188 69.785156 -22.296875 68.015625 -18.203125 C 66.242188 -14.117188 63.820312 -10.601562 60.75 -7.65625 Z M 37.140625 -11.53125 C 39.117188 -11.53125 41.007812 -11.773438 42.8125 -12.265625 L 30.28125 -26.765625 L 44.171875 -26.765625 L 51.828125 -17.9375 C 53.390625 -19.675781 54.617188 -21.703125 55.515625 -24.015625 C 56.421875 -26.335938 56.875 -28.847656 56.875 -31.546875 C 56.875 -35.335938 56.015625 -38.75 54.296875 -41.78125 C 52.585938 -44.8125 50.242188 -47.195312 47.265625 -48.9375 C 44.296875 -50.6875 40.921875 -51.5625 37.140625 -51.5625 C 33.410156 -51.5625 30.039062 -50.6875 27.03125 -48.9375 C 24.03125 -47.195312 21.660156 -44.8125 19.921875 -41.78125 C 18.179688 -38.75 17.3125 -35.335938 17.3125 -31.546875 C 17.3125 -27.765625 18.179688 -24.351562 19.921875 -21.3125 C 21.660156 -18.28125 24.03125 -15.890625 27.03125 -14.140625 C 30.039062 -12.398438 33.410156 -11.53125 37.140625 -11.53125 Z M 37.140625 -11.53125 "/></g></g><g style="fill:#2e282a;fill-opacity:1;"><g transform="translate(82.388927, 210.429732)"><path style="stroke:none" d="M 49.125 0 L 44.703125 -11.984375 L 19.5625 -11.984375 L 15.234375 0 L 0.8125 0 L 25.515625 -63.09375 L 38.40625 -63.09375 L 63.90625 0 Z M 32.09375 -46.421875 L 23.890625 -23.890625 L 40.390625 -23.890625 Z M 32.09375 -46.421875 "/></g></g><g style="fill:#2e282a;fill-opacity:1;"><g transform="translate(150.885739, 210.429732)"><path style="stroke:none" d="M 41.921875 0 L 29.65625 -21.546875 L 20.90625 -21.546875 L 20.90625 0 L 7.21875 0 L 7.21875 -63.09375 L 32.71875 -63.09375 C 36.925781 -63.09375 40.679688 -62.191406 43.984375 -60.390625 C 47.296875 -58.585938 49.910156 -56.125 51.828125 -53 C 53.753906 -49.875 54.71875 -46.269531 54.71875 -42.1875 C 54.71875 -38.101562 53.679688 -34.453125 51.609375 -31.234375 C 49.535156 -28.015625 46.753906 -25.566406 43.265625 -23.890625 L 57.234375 0 Z M 20.90625 -50.484375 L 20.90625 -34.15625 L 31.8125 -34.15625 C 34.644531 -34.15625 36.867188 -34.921875 38.484375 -36.453125 C 40.109375 -37.992188 40.921875 -39.9375 40.921875 -42.28125 C 40.921875 -44.675781 40.109375 -46.640625 38.484375 -48.171875 C 36.867188 -49.710938 34.644531 -50.484375 31.8125 -50.484375 Z M 20.90625 -50.484375 "/></g></g><g style="fill:#2e282a;fill-opacity:1;"><g transform="translate(214.245353, 210.429732)"><path style="stroke:none" d="M 5.40625 0 L 5.40625 -14.0625 L 19.375 -14.0625 L 19.375 0 Z M 5.40625 0 "/></g></g><g style="fill:#2e282a;fill-opacity:1;"><g transform="translate(242.737907, 210.429732)"><path style="stroke:none" d=""/></g></g><g style="fill:#2e282a;fill-opacity:1;"><g transform="translate(82.388927, 307.24421)"><path style="stroke:none" d="M 31.09375 -63.09375 C 35.726562 -63.09375 39.992188 -62.3125 43.890625 -60.75 C 47.796875 -59.1875 51.175781 -56.992188 54.03125 -54.171875 C 56.894531 -51.347656 59.117188 -48.023438 60.703125 -44.203125 C 62.296875 -40.390625 63.09375 -36.203125 63.09375 -31.640625 C 63.09375 -27.066406 62.296875 -22.859375 60.703125 -19.015625 C 59.117188 -15.171875 56.894531 -11.820312 54.03125 -8.96875 C 51.175781 -6.113281 47.796875 -3.90625 43.890625 -2.34375 C 39.992188 -0.78125 35.726562 0 31.09375 0 L 7.21875 0 L 7.21875 -63.09375 Z M 30.734375 -12.703125 C 34.335938 -12.703125 37.519531 -13.515625 40.28125 -15.140625 C 43.050781 -16.765625 45.21875 -19.003906 46.78125 -21.859375 C 48.34375 -24.710938 49.125 -27.972656 49.125 -31.640625 C 49.125 -35.304688 48.34375 -38.550781 46.78125 -41.375 C 45.21875 -44.195312 43.050781 -46.40625 40.28125 -48 C 37.519531 -49.59375 34.335938 -50.390625 30.734375 -50.390625 L 20.90625 -50.390625 L 20.90625 -12.703125 Z M 30.734375 -12.703125 "/></g></g><g style="fill:#2e282a;fill-opacity:1;"><g transform="translate(152.958663, 307.24421)"><path style="stroke:none" d="M 20.90625 -12.703125 L 46.0625 -12.703125 L 46.0625 0 L 7.21875 0 L 7.21875 -63.09375 L 45.0625 -63.09375 L 45.0625 -50.484375 L 20.90625 -50.484375 L 20.90625 -38.046875 L 42.734375 -38.046875 L 42.734375 -25.6875 L 20.90625 -25.6875 Z M 20.90625 -12.703125 "/></g></g><g style="fill:#2e282a;fill-opacity:1;"><g transform="translate(207.12537, 307.24421)"><path style="stroke:none" d="M 47.234375 -63.09375 L 62.109375 -63.09375 L 38.3125 0 L 25.421875 0 L 0.71875 -63.09375 L 15.78125 -63.09375 L 31.734375 -18.484375 Z M 47.234375 -63.09375 "/></g></g></g></svg>